<?xml version="1.0" standalone="no"?>
<!DOCTYPE svg PUBLIC "-//W3C//DTD SVG 20010904//EN"
 "http://www.w3.org/TR/2001/REC-SVG-20010904/DTD/svg10.dtd">
<svg version="1.0" xmlns="http://www.w3.org/2000/svg"
 width="512.000000pt" height="512.000000pt" viewBox="0 0 512.000000 512.000000"
 preserveAspectRatio="xMidYMid meet">

<g transform="translate(0.000000,512.000000) scale(0.100000,-0.100000)"
fill="#000000" stroke="none">
<path d="M2425 5014 c-948 -56 -1728 -543 -2130 -1329 -296 -578 -367 -1298
-189 -1914 221 -762 777 -1337 1569 -1623 100 -36 117 -39 185 -36 117 7 195
59 240 160 18 42 21 69 23 245 2 222 -8 284 -52 332 -16 17 -41 33 -56 37 -16
4 -88 -1 -161 -11 -108 -15 -147 -17 -211 -8 -162 21 -264 96 -342 251 -23 45
-41 83 -41 84 0 2 28 -23 62 -55 109 -102 278 -167 433 -167 118 0 324 57 373
103 36 33 49 64 61 147 7 45 19 85 31 100 45 57 53 73 58 120 5 55 -23 118
-65 146 -14 8 -92 26 -175 40 -248 41 -390 91 -512 178 -76 54 -160 144 -205
220 -106 178 -160 533 -115 754 21 106 55 177 145 303 42 60 80 124 83 142 4
22 -1 53 -15 93 -27 73 -37 253 -20 336 l12 56 70 -19 c76 -21 171 -66 277
-131 95 -58 162 -88 199 -88 17 0 69 9 116 20 305 72 666 72 977 -1 48 -12
104 -19 127 -16 41 4 62 15 226 116 74 46 187 94 254 109 l42 10 12 -56 c17
-84 13 -206 -12 -313 -13 -60 -19 -109 -15 -130 4 -20 32 -66 67 -109 74 -93
123 -189 150 -299 19 -76 21 -104 16 -255 -6 -178 -20 -267 -63 -391 -52 -150
-167 -295 -290 -367 -114 -67 -181 -88 -518 -167 -158 -37 -216 -80 -216 -164
0 -45 27 -102 65 -137 37 -34 62 -86 81 -167 14 -59 15 -114 9 -405 -7 -362
-3 -412 41 -499 44 -87 145 -149 244 -149 131 0 528 172 770 333 271 181 505
414 674 671 185 281 303 591 368 962 20 112 22 164 22 399 0 288 -6 354 -60
593 -48 215 -117 408 -219 612 -359 721 -1077 1210 -1925 1314 -131 16 -372
26 -475 20z m540 -353 c240 -41 419 -97 621 -196 626 -305 1050 -892 1176
-1625 25 -149 35 -430 19 -581 -72 -694 -428 -1258 -1016 -1608 -103 -61 -281
-146 -380 -181 -27 -10 -58 -21 -67 -25 -16 -6 -17 19 -15 372 2 361 1 381
-20 451 -15 52 -18 74 -10 77 7 2 46 13 88 25 461 125 770 463 865 946 27 133
24 376 -5 514 -29 135 -88 284 -151 384 l-51 78 12 81 c16 111 6 330 -20 430
-26 98 -65 171 -110 206 -33 25 -40 26 -155 25 -109 0 -131 -4 -221 -34 -96
-31 -276 -115 -357 -166 l-38 -24 -98 19 c-202 41 -433 56 -632 41 -129 -9
-356 -41 -393 -56 -7 -2 -69 24 -138 60 -216 113 -382 167 -514 168 -134 2
-185 -35 -229 -169 -54 -163 -72 -369 -44 -519 11 -64 11 -64 -21 -109 -53
-74 -128 -243 -156 -355 -39 -151 -46 -384 -17 -555 42 -242 133 -450 268
-611 l43 -51 -87 30 c-101 35 -255 48 -330 28 -59 -16 -117 -71 -136 -128 -33
-97 -19 -129 116 -264 118 -116 182 -208 239 -341 21 -48 48 -105 61 -126 l22
-37 -58 50 c-314 267 -564 703 -650 1138 -111 552 -18 1125 260 1604 330 569
879 938 1544 1037 163 24 161 24 420 21 192 -2 271 -7 365 -24z m-1424 -3220
c68 -31 239 -86 302 -97 87 -15 -1 -48 -113 -42 -79 4 -140 32 -199 90 -39 39
-68 78 -58 78 2 0 33 -13 68 -29z m156 -894 l103 -2 0 -52 0 -53 -62 24 c-96
36 -212 86 -222 96 -4 5 11 4 35 -1 24 -6 90 -11 146 -12z"/>
</g>
</svg>
