<?xml version="1.0" standalone="no"?>
<!DOCTYPE svg PUBLIC "-//W3C//DTD SVG 20010904//EN"
 "http://www.w3.org/TR/2001/REC-SVG-20010904/DTD/svg10.dtd">
<svg version="1.0" xmlns="http://www.w3.org/2000/svg"
 width="512.000000pt" height="512.000000pt" viewBox="0 0 512.000000 512.000000"
 preserveAspectRatio="xMidYMid meet">

<g transform="translate(0.000000,512.000000) scale(0.100000,-0.100000)"
fill="#000000" stroke="none">
<path d="M485 5010 c-274 -55 -485 -311 -485 -590 0 -323 277 -600 600 -600
277 0 525 202 586 477 45 203 -22 411 -180 560 -138 130 -339 189 -521 153z
m235 -322 c183 -79 232 -327 92 -471 -146 -152 -398 -105 -484 91 -28 61 -27
165 2 229 66 151 237 217 390 151z"/>
<path d="M107 3436 c-21 -8 -48 -22 -59 -33 -50 -44 -48 25 -48 -1633 0 -1535
0 -1551 20 -1590 13 -26 34 -47 60 -60 39 -20 54 -20 533 -18 491 3 492 3 523
25 69 49 64 -78 62 1656 l-3 1566 -21 28 c-12 15 -36 37 -55 48 -33 19 -54 20
-504 22 -379 2 -477 0 -508 -11z m791 -1663 l-3 -1368 -295 0 -295 0 -3 1368
-2 1367 300 0 300 0 -2 -1367z"/>
<path d="M1972 3440 c-18 -4 -45 -18 -59 -31 -56 -53 -53 53 -53 -1642 l0
-1564 23 -34 c47 -70 36 -69 578 -69 l486 0 33 22 c18 13 43 36 54 51 21 28
21 35 26 885 5 847 5 858 26 909 45 108 125 192 232 241 76 35 214 43 293 17
158 -52 269 -176 299 -334 6 -34 10 -354 10 -863 0 -896 -3 -853 64 -901 31
-22 32 -22 523 -25 479 -2 494 -2 533 18 26 13 47 34 60 60 20 38 20 57 20
884 0 840 -4 957 -36 1136 -100 549 -419 967 -878 1149 -161 65 -324 93 -530
93 -209 -1 -401 -39 -551 -110 l-60 -29 -25 51 c-46 94 -24 91 -565 93 -258 1
-485 -2 -503 -7z m778 -372 c0 -40 5 -91 11 -113 24 -87 126 -138 200 -100 18
10 65 45 104 77 165 140 366 208 614 208 508 0 880 -280 1053 -790 79 -234 90
-396 86 -1275 l-3 -670 -295 0 -295 0 -5 775 c-6 864 -2 810 -79 965 -91 184
-265 325 -471 381 -100 28 -283 25 -380 -5 -209 -64 -369 -199 -460 -386 -76
-156 -73 -120 -77 -973 l-4 -762 -295 0 -294 0 0 1370 0 1370 295 0 295 0 0
-72z"/>
</g>
</svg>
