<?xml version="1.0" standalone="no"?>
<!DOCTYPE svg PUBLIC "-//W3C//DTD SVG 20010904//EN"
 "http://www.w3.org/TR/2001/REC-SVG-20010904/DTD/svg10.dtd">
<svg version="1.0" xmlns="http://www.w3.org/2000/svg"
 width="512.000000pt" height="512.000000pt" viewBox="0 0 512.000000 512.000000"
 preserveAspectRatio="xMidYMid meet">

<g transform="translate(0.000000,512.000000) scale(0.100000,-0.100000)"
fill="#000000" stroke="none">
<path d="M3338 4625 c-250 -41 -501 -174 -674 -357 -186 -197 -279 -414 -300
-700 -8 -113 4 -105 -129 -82 -372 64 -728 209 -1049 428 -185 126 -325 251
-535 480 -50 54 -74 66 -132 66 -45 0 -84 -17 -115 -52 -28 -30 -84 -143 -117
-235 -94 -262 -75 -599 49 -845 l23 -46 -24 -6 c-38 -10 -92 -63 -106 -103
-17 -52 -5 -207 25 -325 49 -192 143 -363 280 -505 69 -72 73 -80 60 -98 -31
-42 -37 -96 -19 -155 48 -152 156 -319 288 -447 97 -93 167 -144 282 -205 l70
-37 -65 -29 c-237 -107 -533 -159 -840 -147 -173 7 -175 6 -210 -17 -67 -45
-91 -148 -51 -215 51 -83 465 -289 759 -379 777 -236 1644 -153 2327 223 586
322 1030 815 1294 1436 129 303 200 619 223 982 l11 190 74 77 c108 115 187
228 254 363 67 136 99 254 99 361 0 87 -23 127 -90 162 -57 29 -97 24 -182
-22 -142 -78 -302 -110 -433 -87 -59 11 -75 18 -119 58 -139 124 -323 217
-519 259 -102 22 -302 27 -409 9z m335 -319 c148 -29 295 -105 407 -212 64
-61 117 -87 210 -104 77 -14 298 -15 359 -1 51 11 51 9 -10 -82 -63 -92 -133
-170 -205 -228 -94 -74 -95 -78 -99 -303 -7 -347 -58 -611 -177 -920 -221
-569 -646 -1052 -1178 -1339 -585 -316 -1325 -401 -1970 -226 -63 17 -125 33
-137 36 -38 9 -26 18 40 32 111 22 329 100 463 165 152 75 363 212 396 259 33
46 33 139 0 185 -34 47 -66 60 -178 71 -161 17 -291 65 -419 156 -60 42 -175
156 -175 172 0 5 41 14 91 21 103 14 152 32 192 70 72 69 49 199 -43 247 -14
7 -54 20 -89 29 -205 52 -399 202 -506 391 -32 56 -69 145 -63 150 2 2 37 -3
78 -11 115 -20 195 -18 240 7 70 40 101 139 65 209 -8 16 -47 55 -87 87 -101
83 -110 91 -163 158 -60 75 -119 196 -145 299 -23 90 -27 252 -9 337 l11 51
77 -75 c404 -397 1012 -692 1597 -776 307 -44 374 -39 428 31 37 49 40 82 21
194 -38 217 12 421 143 595 114 149 285 262 472 309 130 33 247 38 363 16z"/>
</g>
</svg>
